HIERARCHY
ROOT Hips
{
  OFFSET 2.26061 22.2878 23.7974
  CHANNELS 6 Xposition Yposition Zposition Zrotation Xrotation Yrotation
  JOINT LeftUpLeg
  {
    OFFSET 8.64259 1.95398 -2.38835
    CHANNELS 3 Zrotation Xrotation Yrotation
    JOINT LeftLeg
    {
      OFFSET 43.7702 0 0
      CHANNELS 3 Zrotation Xrotation Yrotation
      JOINT LeftFoot
      {
        OFFSET 40.6238 0 0
        CHANNELS 3 Zrotation Xrotation Yrotation
        JOINT LeftToeBase
        {
          OFFSET 12.7242 0 0
          CHANNELS 3 Zrotation Xrotation Yrotation
          End Site
          {
            OFFSET 0 0 0
          }
        }
      }
    }
  }
  JOINT RightUpLeg
  {
    OFFSET -8.2249 1.95398 -2.59336
    CHANNELS 3 Zrotation Xrotation Yrotation
    JOINT RightLeg
    {
      OFFSET 43.5653 0 0
      CHANNELS 3 Zrotation Xrotation Yrotation
      JOINT RightFoot
      {
        OFFSET 40.6238 0 0
        CHANNELS 3 Zrotation Xrotation Yrotation
        JOINT RightToeBase
        {
          OFFSET 12.7242 0 0
          CHANNELS 3 Zrotation Xrotation Yrotation
          End Site
          {
            OFFSET 0 0 0
          }
        }
      }
    }
  }
  JOINT Spine
  {
    OFFSET 0.165834 0.87714 6.61349
    CHANNELS 3 Zrotation Xrotation Yrotation
    JOINT Spine1
    {
      OFFSET 7.38963 1.71661e-005 0
      CHANNELS 3 Zrotation Xrotation Yrotation
      JOINT Spine2
      {
        OFFSET 11.9445 1.14441e-005 0
        CHANNELS 3 Zrotation Xrotation Yrotation
        JOINT Spine3
        {
          OFFSET 14.7254 4.19617e-005 0
          CHANNELS 3 Zrotation Xrotation Yrotation
          JOINT Spine4
          {
            OFFSET 10.9679 0 0
            CHANNELS 3 Zrotation Xrotation Yrotation
            JOINT RightShoulder
            {
              OFFSET 2.46616 -1.6653 3.69651
              CHANNELS 3 Zrotation Xrotation Yrotation
              JOINT RightArm
              {
                OFFSET 13.0012 0 0
                CHANNELS 3 Zrotation Xrotation Yrotation
                JOINT RightForeArm
                {
                  OFFSET 28.7848 1.52588e-005 0
                  CHANNELS 3 Zrotation Xrotation Yrotation
                  JOINT RightHand
                  {
                    OFFSET 26.5688 1.52588e-005 0
                    CHANNELS 3 Zrotation Xrotation Yrotation
                    End Site
                    {
                      OFFSET 0 0 0
                    }
                  }
                }
              }
            }
            JOINT LeftShoulder
            {
              OFFSET 2.38034 -1.29275 -3.7523
              CHANNELS 3 Zrotation Xrotation Yrotation
              JOINT LeftArm
              {
                OFFSET 16.3182 6.10351e-005 0
                CHANNELS 3 Zrotation Xrotation Yrotation
                JOINT LeftForeArm
                {
                  OFFSET 27.0901 0 0
                  CHANNELS 3 Zrotation Xrotation Yrotation
                  JOINT LeftHand
                  {
                    OFFSET 24.5451 1.52588e-005 0
                    CHANNELS 3 Zrotation Xrotation Yrotation
                    End Site
                    {
                      OFFSET 0 0 0
                    }
                  }
                }
              }
            }
            JOINT Neck
            {
              OFFSET 5.0226 -0.0266342 0
              CHANNELS 3 Zrotation Xrotation Yrotation
              JOINT Head
              {
                OFFSET 6.69363 2.86102e-005 0
                CHANNELS 3 Zrotation Xrotation Yrotation
                End Site
                {
                  OFFSET 0 0 0
                }
              }
            }
          }
        }
      }
    }
  }
}
MOTION
Frames:	14
Frame Time:	0.0416667
152.25 12.3594 146.133 2.61818 -5.70591 43.2797 -172.13 4.61603 89.6665 -20.3216 23.6146 -1.36448 54.559 -2.37309 0.0979539 67.2488 39.1945 19.8252 176.531 7.94548 86.1577 -32.5868 -21.041 -8.90448 63.5576 -2.06453 -1.11945 54.9845 2.55258 7.39613 -2.18219 10.5051 -94.7585 5.51195 -6.33831 -9.20522 -6.17419 -6.73569 -8.91972 -28.4913 -3.29695 -10.6686 -8.47865 -3.29695 -10.6686 80.1873 59.0248 -25.6451 65.6943 -15.3268 -36.295 -41.6919 23.5315 -122.887 -66.0078 -6.71472 9.44723 -51.4053 -76.2997 127.304 -11.931 -39.6422 10.4483 25.6288 -21.8756 -149.611 64.4269 14.5042 17.6069 80.6757 33.0259 49.0663 -0.459475 -11.0665 -43.6312 
152.315 12.3973 146.202 2.72079 -5.75823 43.2715 -172.151 4.54131 89.5905 -20.6327 23.9042 -1.36114 53.5139 -3.20556 0.380446 65.6714 36.2247 17.1886 176.366 7.80591 86.1213 -32.296 -20.7619 -8.77619 63.0327 -1.85523 -0.991918 55.3528 2.60256 7.60068 -2.22903 10.4835 -94.804 5.54622 -6.4522 -9.29006 -6.13993 -6.85316 -8.99954 -28.4543 -3.38063 -10.7832 -8.44162 -3.38066 -10.7832 79.394 59.8128 -25.4121 66.2155 -15.5097 -35.5909 -41.7611 24.013 -122.769 -66.0221 -6.83736 9.66431 -50.8021 -76.626 127.888 -11.9606 -39.9753 10.6878 25.3754 -21.266 -149.663 64.7913 14.3515 17.2338 80.1668 33.4769 49.757 -0.787539 -10.8284 -43.7427 
152.313 12.3997 146.196 2.62754 -5.74284 43.2631 -172.094 4.69193 89.6154 -20.7668 23.7875 -1.40769 53.6054 -3.16163 0.30656 65.7925 36.2224 16.9368 176.515 7.86984 86.1411 -32.2285 -20.609 -8.8343 62.0983 -1.50332 -0.784417 61.768 2.93971 5.50598 -2.21358 10.4248 -94.8153 5.66404 -6.43074 -9.30523 -6.0223 -6.83239 -9.01567 -28.3352 -3.35568 -10.7912 -8.32254 -3.35568 -10.7912 78.7061 60.6643 -25.5373 66.7389 -15.3725 -34.6591 -41.991 24.2133 -122.796 -66.2912 -6.83546 9.65458 -51.2507 -77.0296 127.269 -11.3119 -40.2691 11.2894 25.3807 -21.2162 -149.623 64.9071 14.2696 17.0672 79.6666 33.6054 50.2715 0.463863 -11.233 -43.6238 
152.313 12.4202 146.194 2.64342 -5.85997 43.2741 -172.068 4.62537 89.5936 -20.889 23.8758 -1.43301 53.8385 -2.9555 1.27723 65.6882 35.8398 16.3717 176.62 7.74623 86.1779 -32.0953 -20.5543 -8.89556 62.1224 -1.54205 -0.811603 61.531 3.015 5.99848 -2.22264 10.3295 -94.8361 5.8521 -6.46515 -9.3331 -5.83426 -6.86797 -9.04202 -28.1462 -3.3803 -10.8279 -8.13352 -3.38031 -10.828 77.3678 62.4296 -26.0199 67.7278 -15.1378 -33.1337 -42.3488 24.3089 -122.652 -65.9585 -6.76789 9.66276 -52.0839 -77.5317 126.196 -10.1756 -40.8395 12.4742 25.0355 -20.6899 -149.821 65.0022 14.24 16.9857 76.24 35.3403 52.0567 0.732924 -9.17818 -44.1097 
152.272 12.4466 146.173 2.81122 -5.86296 43.2201 -172.091 4.66269 89.5126 -21.1803 23.9839 -1.46228 53.8203 -2.95009 1.72366 65.564 35.9079 16.7602 176.504 7.72296 86.0718 -32.352 -20.7741 -8.91342 62.3719 -1.61449 -0.853121 61.0099 2.99365 6.15445 -2.24997 10.2203 -94.871 6.06498 -6.54299 -9.38583 -5.62135 -6.94802 -9.09129 -27.9317 -3.43906 -10.9012 -7.91902 -3.43907 -10.9012 75.9221 64.737 -27.2254 69.0783 -13.8352 -29.978 -41.9481 24.3556 -123.235 -65.8124 -7.2342 10.4053 -53.6591 -78.2327 124.255 -8.64905 -41.5626 14.5189 24.7189 -20.2312 -150.178 64.115 14.1946 17.2719 74.4652 35.6007 54.031 1.95804 -9.96506 -44.559 
152.275 12.4857 146.219 2.67336 -5.87476 43.1331 -172.021 4.66911 89.4326 -21.0172 22.86 -1.52376 53.6404 -3.08054 1.29197 66.7129 35.5273 13.702 176.436 7.84902 85.9512 -32.2372 -20.9254 -8.84708 61.9084 -1.44892 -0.75527 61.7973 3.21371 6.73767 -2.26747 10.0513 -94.9589 6.39253 -6.62834 -9.53493 -5.29437 -7.03978 -9.23662 -27.5971 -3.47658 -11.0683 -7.58445 -3.47657 -11.0683 74.0115 68.1495 -29.3321 71.1053 -10.8704 -26.1398 -41.8126 24.5394 -124.202 -65.5595 -6.89825 10.0809 -53.6586 -79.0827 124.038 -7.67158 -41.2554 15.9175 24.6568 -19.7239 -149.787 64.3941 13.7665 16.5238 72.1567 36.1025 56.7246 1.31061 -10.1733 -45.4015 
152.288 12.5209 146.206 2.67907 -5.96785 43.0954 -172.007 4.57182 89.3247 -21.1037 22.1854 -1.54213 54.2183 -2.5966 1.16106 65.6463 34.6744 14.04 176.526 7.84619 85.9411 -32.4541 -21.1406 -8.96828 62.0766 -1.52339 -0.799099 60.7361 2.97645 6.21102 -2.27666 9.90605 -95.0342 6.67462 -6.69017 -9.66287 -5.01288 -7.10711 -9.36182 -27.3087 -3.49788 -11.2083 -7.29604 -3.49789 -11.2083 72.3977 70.9964 -30.9582 73.0604 -8.95883 -22.054 -41.3037 24.8451 -125.13 -65.4823 -6.67675 9.81244 -55.0749 -80.3012 122.183 -5.7167 -42.4491 18.3732 24.1174 -18.9022 -150.223 64.1998 13.6059 16.3584 69.7725 36.5975 59.3806 2.01014 -10.6982 -47.1509 
152.268 12.5593 146.114 2.71726 -6.16241 42.9943 -171.922 4.14842 89.2425 -20.4145 21.787 -1.6121 53.8658 -2.86398 -0.428331 66.0033 36.1733 16.4135 176.456 7.93725 85.8214 -32.9077 -21.265 -9.14585 62.2068 -1.50816 -0.78416 61.4532 3.02492 6.07821 -2.32099 9.751 -95.1669 6.96636 -6.84733 -9.89894 -4.722 -7.27437 -9.59096 -27.0059 -3.57842 -11.4793 -6.99319 -3.57841 -11.4793 69.8807 73.8739 -31.2879 74.5083 -7.56184 -20.813 -42.5448 25.4528 -125.032 -63.9926 -7.17553 11.0904 -56.2737 -81.9454 120.505 -4.13707 -44.3838 20.9745 23.8078 -18.3854 -150.693 62.8262 13.4109 16.5994 66.6093 37.387 62.8383 2.35776 -10.8209 -49.0002 
152.363 12.6228 146.121 3.13755 -6.27303 42.9607 -172.046 4.02858 89.0877 -21.1072 22.4939 -1.56283 54.3633 -2.49099 0.961323 64.6694 35.1821 17.0996 176.148 7.40474 85.5953 -32.4016 -21.1796 -8.89551 62.0777 -1.50971 -0.788878 61.3439 3.11232 6.51872 -2.39585 9.59092 -95.3368 7.26073 -7.08221 -10.2041 -4.42858 -7.52224 -9.88579 -26.6974 -3.7129 -11.839 -6.68468 -3.71289 -11.839 66.8003 77.2072 -31.6047 74.9889 -5.44087 -18.0962 -42.4124 25.611 -125.407 -63.4133 -7.05231 11.0773 -57.6968 -83.5005 118.651 -1.58853 -44.8 23.9346 22.9506 -16.5164 -150.793 63.1666 13.0115 15.8571 63.5536 37.9648 66.6073 2.88833 -11.2625 -49.8572 
152.327 12.6619 146.079 2.94557 -6.62625 43.0424 -171.917 3.974 89.2405 -21.2202 23.0404 -1.62429 54.335 -2.49763 1.64274 65.1212 34.8721 15.521 176.375 7.38274 85.7746 -32.6647 -21.2646 -9.13217 62.0189 -1.47973 -0.765389 59.9814 3.25508 7.89578 0.542847 8.43442 -84.0698 8.69736 3.68388 11.7804 -3.02864 4.19386 11.6103 -25.0449 0.0155267 12.3371 -5.03225 0.0155228 12.3371 176.18 -68.4525 7.17488 -4.18253 0.155963 -1.65805 -29.4186 18.3023 -124.783 -66.1563 -6.69494 6.90083 -90.1969 61.0244 125.337 -57.8637 10.8789 -0.741524 45.6608 -39.0517 -129.352 58.6814 14.1242 19.4774 10.0732 -22.6406 -80.1344 33.7048 2.473 23.0505 
152.248 12.7772 146.009 3.34599 -6.92913 43.0266 -171.898 3.40108 89.1754 -20.9971 22.4102 -1.58064 54.8719 -2.01956 1.09905 65.5325 36.7593 18.5325 176.159 7.15062 85.6185 -33.104 -21.5191 -9.10222 62.8578 -1.78929 -0.949546 59.9645 3.01171 6.76509 0.179719 8.85192 -84.7118 8.9316 2.71154 10.2873 -2.77614 3.15933 10.16 -24.9851 -0.486526 10.624 -4.97247 -0.486541 10.624 147.728 -69.6854 -26.9076 -0.445395 -0.241743 -3.15293 -31.1075 19.5852 -124.239 -65.4171 -7.0272 7.82378 -82.482 54.2045 115.378 -54.5839 6.26313 0.261514 43.1514 -37.11 -131.088 58.842 14.6513 20.2861 23.828 -26.2001 -72.5723 32.2134 2.13261 18.2014 
152.293 12.978 145.891 3.26589 -7.88844 42.7326 -171.747 2.67554 88.8154 -20.9107 21.2121 -1.77632 55.0682 -1.79034 1.31264 65.0545 36.1352 18.2528 176.039 6.89223 85.253 -33.3208 -21.4 -9.19165 62.1145 -1.50346 -0.778086 61.9694 2.97425 5.62983 0.162742 8.77954 -84.7866 9.08345 2.6511 10.1418 -2.6233 3.09264 10.0171 -24.8414 -0.501257 10.4672 -4.82876 -0.501256 10.4672 147.189 -69.505 -27.4349 -0.606427 -0.678967 -4.90516 -34.6456 21.8836 -122.392 -64.8989 -7.1057 8.39595 -82.3165 52.5292 116.35 -53.9036 3.72508 -0.882491 40.1482 -35.9116 -133.197 51.9963 12.7755 20.3947 24.2739 -25.5341 -71.8884 30.5332 2.73224 18.1516 
152.566 13.1364 145.623 3.39952 -9.12543 42.716 -171.903 1.52901 88.5802 -20.5896 22.6417 -1.69226 54.8534 -1.81164 3.21724 64.7513 35.7623 18.1233 174.948 6.203 84.5051 -33.2814 -22.1163 -8.61365 61.7929 -1.37165 -0.693297 63.8597 2.93779 4.6756 0.0848852 8.7863 -85.0161 9.09592 2.39435 9.70464 -2.60813 2.81719 9.59144 -24.853 -0.617222 9.97402 -4.8404 -0.617212 9.97401 142.466 -69.3906 -32.8586 -0.823722 0.651478 -6.06358 -35.4535 21.9139 -122.152 -63.0698 -8.79627 11.5621 -81.7327 48.7871 118.016 -54.6163 3.11329 -2.7287 39.4618 -36.7827 -133.925 48.1324 11.4436 19.7975 25.1706 -24.7496 -70.5877 29.1975 3.57062 17.965 
152.869 13.1629 145.277 2.38903 -10.1243 42.4158 -171.926 1.38312 88.3952 -20.6573 23.1926 -1.77652 54.908 -1.89777 2.35361 65.8829 36.1412 16.5912 174.824 6.50625 84.2164 -33.3127 -21.8289 -8.55921 61.5838 -1.26205 -0.635023 67.5831 2.43868 1.64047 0.0826534 8.72529 -85.2132 9.23369 2.30774 9.319 -2.46774 2.71388 9.2098 -24.7352 -0.585729 9.58032 -4.72257 -0.585716 9.58032 138.957 -68.9477 -36.7847 -1.985 1.36692 -6.99922 -34.9971 21.4527 -122.11 -61.9747 -8.26087 10.9244 -80.6919 44.6813 118.04 -56.3487 5.49732 -5.33307 46.1942 -42.9514 -129.722 44.3497 10.8651 20.6332 26.2252 -24.2274 -68.7642 28.0093 4.0305 17.7256 
